<svg style="display: none;" xmlns="http://www.w3.org/2000/svg">
    <symbol id="vector" viewBox="0 0 61 2">
        <path d="M4.60989 2H57.1099C58.3597 2 60.8599 0.551997 60.8599 0C60.8599 0 59.8456 9.53111e-06 58.5957 9.53111e-06H3.12404C1.87423 9.53111e-06 0.859894 0 0.859894 0C0.859894 0.551997 3.36008 2 4.60989 2Z"/>
    </symbol>
    <symbol id="burger" viewBox="0 0 24 15">
        <path d="M1.5 1.76471H22.5C22.9999 1.76471 24 0.487058 24 0C24 0 23.5943 8.40983e-06 23.0943 8.40983e-06H0.90566C0.405736 8.40983e-06 0 0 0 0C0 0.487058 1.00008 1.76471 1.5 1.76471Z"/>
        <path d="M1.5 8.43751H22.5C22.9999 8.43751 24 7.15985 24 6.67279C24 6.67279 23.5943 6.6728 23.0943 6.6728H0.90566C0.405736 6.6728 0 6.67279 0 6.67279C0 7.15985 1.00008 8.43751 1.5 8.43751Z"/>
        <path d="M1.5 15H22.5C22.9999 15 24 13.7223 24 13.2353C24 13.2353 23.5943 13.2353 23.0943 13.2353H0.90566C0.405736 13.2353 0 13.2353 0 13.2353C0 13.7223 1.00008 15 1.5 15Z"/>
    </symbol>
    <symbol id="speed" viewBox="0 0 134 102">
        <path d="M96.827 64.7326C96.827 81.3076 83.32 94.7444 66.6582 94.7444C49.9965 94.7444 36.4895 81.3076 36.4895 64.7326C36.4895 48.1575 49.9965 34.7208 66.6582 34.7208C83.32 34.7208 96.827 48.1575 96.827 64.7326Z" fill="#C4C4C4"/>
        <path d="M59.9929 68.6314C58.1224 64.6053 59.8573 59.8377 63.8484 58.0026C67.8309 56.1715 72.5828 57.9567 74.4533 61.9828L113.896 83.9728L70.1644 72.8114C66.2725 74.3106 61.7946 72.5092 59.9929 68.6314Z" fill="#030104"/>
        <path d="M20.0428 20.6684C32.4946 8.22633 49.0496 1.37427 66.6582 1.37427C84.2672 1.37427 100.823 8.22633 113.274 20.6684C125.726 33.1105 132.583 49.6529 132.583 67.2485C132.583 78.6098 129.718 89.5284 124.34 99.1905H112.018L103.006 93.9909L106.986 87.1023L118.574 93.7882C122.668 85.8233 124.981 76.801 124.981 67.2485C124.981 65.558 124.904 63.885 124.763 62.2304L110.945 64.6648L109.563 56.8315L123.543 54.3685C121.045 43.3473 115.412 33.5021 107.635 25.8201L98.1628 37.1L92.0648 31.9872L101.608 20.6223C92.8572 14.0559 82.2044 9.89135 70.6382 9.10906V24.195H62.6783V9.10906C51.1121 9.89197 40.4593 14.0562 31.7077 20.6226L41.2517 31.9872L35.154 37.1L25.6819 25.8198C17.9043 33.5021 12.272 43.3473 9.77393 54.3682L23.7534 56.8318L22.3708 64.6645L8.55456 62.2298C8.41286 63.8847 8.33601 65.5574 8.33601 67.2479C8.33601 76.801 10.6478 85.8236 14.7424 93.7879L26.3308 87.1026L30.3104 93.9909L21.2987 99.1899H8.97659C3.59811 89.5278 0.733978 78.6092 0.733978 67.2479C0.733673 49.6526 7.59155 33.1099 20.0428 20.6684Z" fill="#030104"/>
    </symbol>
    <symbol id="road_dasktop" viewBox="0 0 41 58">
        <path fill-rule="evenodd" clip-rule="evenodd" d="M21.3113 15.508C22.0047 16.439 23.2427 17.1217 25.2946 16.8469C28.8975 16.3644 31.6855 17.4456 33.3582 19.5167C34.9898 21.5368 35.3643 24.2642 34.6618 26.7102C33.9519 29.1819 32.1264 31.4474 29.2582 32.583C26.3942 33.717 22.6671 33.6599 18.216 31.8717C14.3494 30.3183 12.1258 30.5701 10.9292 31.2703C9.76165 31.9534 9.07789 33.3612 9.00606 35.3528C8.93489 37.3258 9.49503 39.5733 10.458 41.3899C11.4548 43.2703 12.6763 44.3246 13.6957 44.5294L13.1048 47.4706C10.7649 47.0006 8.95819 44.9658 7.80743 42.795C6.62285 40.5604 5.91602 37.7947 6.00801 35.2447C6.09932 32.7132 7.00882 30.0882 9.41418 28.6809C11.7904 27.2906 15.1193 27.3945 19.3343 29.0879C23.2814 30.6736 26.189 30.5716 28.1539 29.7937C30.1147 29.0173 31.3125 27.5041 31.7784 25.882C32.2516 24.2343 31.9543 22.5531 31.0244 21.4017C30.1357 20.3013 28.4726 19.4481 25.6928 19.8203C22.7058 20.2203 20.3325 19.216 18.9054 17.3002C17.5292 15.4527 17.1937 12.9741 17.7342 10.6548C18.28 8.31217 19.7384 6.01641 22.1216 4.4575C24.5164 2.89101 27.7478 2.12943 31.744 2.67673L31.3369 5.64898C27.9426 5.1841 25.4632 5.85647 23.7639 6.96808C22.0529 8.08727 21.0338 9.71377 20.6559 11.3356C20.2725 12.9807 20.5669 14.5087 21.3113 15.508Z" fill="black" stroke="black" stroke-width="3"/>
        <path fill-rule="evenodd" clip-rule="evenodd" d="M31.5133 4.36101C31.0533 4.298 30.6067 4.2542 30.1736 4.22836L30.1974 3.82907C30.641 3.85553 31.0978 3.90036 31.5676 3.96471L31.5133 4.36101ZM27.487 4.30828C26.5394 4.42942 25.6762 4.6483 24.896 4.9451L24.7538 4.57124C25.5647 4.26275 26.4587 4.03648 27.4363 3.91151L27.487 4.30828ZM22.5651 6.22218C21.8251 6.77927 21.2089 7.42361 20.7144 8.1187L20.3885 7.88681C20.9064 7.15888 21.5511 6.4848 22.3245 5.90261L22.5651 6.22218ZM19.5383 10.492C19.2674 11.3689 19.1549 12.2601 19.1966 13.1098L18.7971 13.1294C18.753 12.2313 18.8721 11.2936 19.1561 10.374L19.5383 10.492ZM19.8617 15.6393C20.2706 16.4114 20.8632 17.0592 21.6351 17.5108L21.4331 17.856C20.5921 17.364 19.9492 16.6592 19.5082 15.8265L19.8617 15.6393ZM25.4671 18.1354C26.0153 18.062 26.5366 18.0289 27.031 18.0327L27.0279 18.4327C26.5535 18.429 26.051 18.4607 25.5202 18.5318C25.0279 18.5978 24.5606 18.6198 24.1189 18.6016L24.1354 18.202C24.5522 18.2191 24.9962 18.1984 25.4671 18.1354ZM30.0887 18.633C31.1283 19.0834 31.9437 19.7615 32.5346 20.5791L32.2104 20.8134C31.6614 20.0538 30.9029 19.4217 29.9297 19.0001L30.0887 18.633ZM33.6511 23.5C33.7732 24.5216 33.6663 25.5879 33.334 26.6067L32.9537 26.4827C33.2685 25.5175 33.3689 24.5097 33.2539 23.5475L33.6511 23.5ZM14.6936 29.5255C13.6425 29.376 12.732 29.3912 11.9491 29.5384L11.8752 29.1452C12.7085 28.9886 13.6637 28.975 14.7499 29.1295L14.6936 29.5255ZM31.7737 29.3109C31.1083 30.0526 30.2724 30.6904 29.2687 31.1628L29.0984 30.8008C30.0534 30.3514 30.846 29.746 31.4759 29.0438L31.7737 29.3109ZM18.7006 30.6654C18.2456 30.4826 17.8073 30.3217 17.3851 30.1815L17.5111 29.8019C17.9416 29.9448 18.3876 30.1086 18.8497 30.2942C19.3381 30.4904 19.8142 30.6632 20.2779 30.8138L20.1543 31.1943C19.6817 31.0407 19.1971 30.8648 18.7006 30.6654ZM9.53944 30.6826C8.87649 31.2772 8.40685 32.0545 8.10782 32.95L7.72841 32.8233C8.04526 31.8745 8.5488 31.0338 9.27236 30.3848L9.53944 30.6826ZM26.2685 31.9792C25.3197 32.08 24.2835 32.0628 23.161 31.9044L23.2169 31.5084C24.3096 31.6625 25.3128 31.6785 26.2263 31.5814L26.2685 31.9792ZM7.70004 35.6573C7.69718 36.555 7.8044 37.4873 8.00519 38.4081L7.61437 38.4934C7.40806 37.5472 7.29708 36.5858 7.30005 35.6561L7.70004 35.6573ZM8.8538 41.0486C9.23517 41.9309 9.69747 42.748 10.2202 43.4495L9.89949 43.6885C9.35588 42.959 8.87868 42.1143 8.48664 41.2074L8.8538 41.0486ZM12.1993 45.3144C12.6017 45.5524 13.0168 45.719 13.4396 45.8039L13.3608 46.1961C12.8882 46.1012 12.4313 45.9163 11.9957 45.6588L12.1993 45.3144Z" fill="white" stroke="black" stroke-width="0.4" stroke-dasharray="3 3"/>
        <path d="M17 46.5C17 48.1569 15.6569 49.5 14 49.5C12.3431 49.5 11 48.1569 11 46.5C11 44.8431 12.3431 43.5 14 43.5C15.6569 43.5 17 44.8431 17 46.5Z" fill="#C4C4C4" stroke="black"/>
        <path d="M15 46.5C15 47.0523 14.5523 47.5 14 47.5C13.4477 47.5 13 47.0523 13 46.5C13 45.9477 13.4477 45.5 14 45.5C14.5523 45.5 15 45.9477 15 46.5Z" fill="white" stroke="black"/>
        <path d="M36 3.5C36 5.15685 34.6569 6.5 33 6.5C31.3431 6.5 30 5.15685 30 3.5C30 1.84315 31.3431 0.5 33 0.5C34.6569 0.5 36 1.84315 36 3.5Z" fill="#C4C4C4" stroke="black"/>
        <path d="M34 3.5C34 4.05228 33.5523 4.5 33 4.5C32.4477 4.5 32 4.05228 32 3.5C32 2.94772 32.4477 2.5 33 2.5C33.5523 2.5 34 2.94772 34 3.5Z" fill="white" stroke="black"/>
    </symbol>
    <symbol id="testdrive" viewBox="0 0 22 22">
        <path d="M11 0C4.95819 0 0 4.95819 0 11C0 17.0418 4.95819 22 11 22C17.0418 22 22 17.0418 22 11C22 4.95819 17.0418 0 11 0ZM11 19.3789C6.38002 19.3789 2.62109 15.62 2.62109 11C2.62109 6.38002 6.38002 2.62109 11 2.62109C15.62 2.62109 19.3789 6.38002 19.3789 11C19.3789 15.62 15.62 19.3789 11 19.3789Z"/>
        <path d="M12.2891 9.06641C12.2891 9.77841 11.712 10.3555 11 10.3555C10.288 10.3555 9.71094 9.77841 9.71094 9.06641C9.71094 8.3544 10.288 7.77734 11 7.77734C11.712 7.77734 12.2891 8.3544 12.2891 9.06641Z"/>
        <path d="M11 11.6446C9.85814 11.6446 8.89873 10.8936 8.56085 9.86356C6.85503 10.0495 5.26434 10.4067 3.91402 10.926C3.91368 10.9509 3.91016 10.975 3.91016 11C3.91016 11.7449 4.02715 12.4627 4.24098 13.1377C5.29573 12.5872 6.32849 12.2891 7.13281 12.2891C7.80571 12.2891 8.32251 12.4793 8.71208 12.8714C9.61275 13.7759 9.71597 15.6118 9.71799 17.9677C10.1344 18.0442 10.5618 18.0899 11 18.0899C11.4384 18.0899 11.8658 18.0442 12.2825 17.9677C12.284 15.6136 12.3867 13.7769 13.2879 12.8714C13.6775 12.4798 14.1936 12.2891 14.8672 12.2891C15.6609 12.2891 16.6959 12.5758 17.7605 13.1335C17.9737 12.4598 18.0898 11.7434 18.0898 11C18.0898 10.9755 18.0863 10.9519 18.0862 10.9275C16.6232 10.3634 15.0045 10.0348 13.4393 9.86322C13.1014 10.8936 12.142 11.6446 11 11.6446Z"/>
    </symbol>
    <symbol id="display" viewBox="0 0 36 53">
        <rect x="2" y="2" width="32" height="49" rx="3" stroke="white" stroke-width="4"/>
        <circle cx="17.5" cy="39.5" r="4.5" fill="white"/>
    </symbol>
    <symbol id="wifi" viewBox="0 0 44 34">
        <path d="M7.1535 15.6233C6.23627 16.561 6.23627 18.087 7.1535 19.0339C8.07073 19.9716 9.56347 19.9716 10.4897 19.0339C16.8384 12.5437 27.1707 12.5437 33.5193 19.0339C33.9779 19.5028 34.5804 19.7418 35.1829 19.7418C35.7854 19.7418 36.3879 19.5028 36.8465 19.0339C37.7638 18.0962 37.7638 16.5702 36.8465 15.6233C28.6634 7.2486 15.3366 7.2486 7.1535 15.6233Z" fill="white"/>
        <path d="M13.5201 22.1319C12.6029 23.0696 12.6029 24.5956 13.5201 25.5425C14.4374 26.4802 15.9301 26.4802 16.8563 25.5425C19.6889 22.6376 24.3111 22.6376 27.1437 25.5425C27.6023 26.0114 28.2048 26.2504 28.8073 26.2504C29.4098 26.2504 30.0123 26.0114 30.4709 25.5425C31.3881 24.6048 31.3881 23.0788 30.4709 22.1411C25.8038 17.3516 18.1962 17.3516 13.5201 22.1319Z" fill="white"/>
        <path d="M22 33.9999C23.7333 33.9999 25.1384 32.5635 25.1384 30.7916C25.1384 29.0197 23.7333 27.5833 22 27.5833C20.2667 27.5833 18.8616 29.0197 18.8616 30.7916C18.8616 32.5635 20.2667 33.9999 22 33.9999Z" fill="white"/>
        <path d="M43.3121 9.00446C31.559 -3.00149 12.441 -3.00149 0.687922 9.00446C-0.229307 9.94214 -0.229307 11.4682 0.687922 12.415C1.60515 13.3527 3.0979 13.3527 4.02412 12.415C13.9338 2.27525 30.0662 2.27525 39.9849 12.415C40.4435 12.8839 41.046 13.1229 41.6485 13.1229C42.251 13.1229 42.8535 12.8839 43.3121 12.415C44.2293 11.4774 44.2293 9.95133 43.3121 9.00446Z" fill="white"/>
    </symbol>
    <symbol id="bag" viewBox="0 0 36 52">
        <rect x="2" y="10" width="32" height="40" rx="3" stroke="white" stroke-width="4"/>
        <path d="M11 5C11 3.34315 12.3431 2 14 2H22C23.6569 2 25 3.34315 25 5V10H11V5Z" stroke="white" stroke-width="4"/>
    </symbol>
    <symbol id="i" viewBox="0 0 22 22">
        <circle cx="11" cy="11" r="10" stroke="white" stroke-width="2"/>
        <path d="M10.9949 8.031C11.7489 8.031 12.2559 7.537 12.2559 6.861C12.2559 6.237 11.7489 5.769 10.9949 5.769C10.2409 5.769 9.73392 6.263 9.73392 6.9C9.73392 7.537 10.2409 8.031 10.9949 8.031ZM9.98092 16H12.0089V9.006H9.98092V16Z" fill="white"/>
    </symbol>
    <symbol id="star" viewBox="0 0 25 23">
        <path d="M12.5 0L15.3064 8.63729H24.3882L17.0409 13.9754L19.8473 22.6127L12.5 17.2746L5.15268 22.6127L7.95911 13.9754L0.611794 8.63729H9.69357L12.5 0Z" fill="white"/>
    </symbol>
    <symbol id="security" viewBox="0 0 62 74">
        <path d="M61.9204 19.0536C61.8825 17.0557 61.8464 15.1683 61.8464 13.3424C61.8464 11.9119 60.6904 10.7522 59.2637 10.7522C48.2184 10.7522 39.8089 7.56873 32.7991 0.73341C31.7963 -0.244643 30.2006 -0.244297 29.1982 0.73341C22.1891 7.56873 13.7809 10.7522 2.73633 10.7522C1.31 10.7522 0.153644 11.9119 0.153644 13.3424C0.153644 15.1687 0.117831 17.0567 0.079607 19.055C-0.274393 37.6477 -0.759247 63.1112 30.1527 73.857C30.4268 73.9523 30.7126 74 30.9985 74C31.2843 74 31.5704 73.9523 31.8442 73.857C62.7586 63.1109 62.2744 37.6466 61.9204 19.0536ZM30.9988 68.6611C4.48773 59.0025 4.88856 37.8442 5.24429 19.1538C5.26564 18.032 5.2863 16.9448 5.30076 15.8791C15.6453 15.4412 23.9174 12.2974 30.9988 6.11063C38.0809 12.2974 46.3544 15.4415 56.6996 15.8791C56.7141 16.9445 56.7347 18.031 56.7561 19.152C57.1115 37.8431 57.5119 59.0022 30.9988 68.6611Z" fill="white"/>
        <path d="M39.8925 28.0021L27.4271 40.5031L22.1078 35.1683C21.0992 34.1571 19.4639 34.1571 18.4556 35.1683C17.447 36.1802 17.447 37.82 18.4556 38.8315L25.601 45.9977C26.1052 46.5033 26.7663 46.7561 27.4271 46.7561C28.088 46.7561 28.7491 46.5033 29.2533 45.9977L43.5445 31.6654C44.5534 30.6538 44.5534 29.0137 43.5448 28.0025C42.5365 26.9909 40.9012 26.9906 39.8925 28.0021Z" fill="white"/>
    </symbol>
    <symbol id="protection1" viewBox="0 0 14 281">
        <rect x="5" width="4" height="271" fill="#E51937"/>
        <circle cx="7" cy="274" r="5.5" fill="white" stroke="#E51937" stroke-width="3"/>
    </symbol>
    <symbol id="protection2" viewBox="0 0 14 132">
        <rect x="5" width="4" height="122" fill="#E51937"/>
        <circle cx="7" cy="125" r="5.5" fill="white" stroke="#E51937" stroke-width="3"/>
    </symbol>
    <symbol id="protection3" viewBox="0 0 14 118">
        <rect x="9" y="118" width="4.00001" height="108" transform="rotate(-180 9 118)" fill="#E51937"/>
        <circle cx="7" cy="7" r="5.5" transform="rotate(-180 7 7)" fill="white" stroke="#E51937" stroke-width="3"/>
    </symbol>
    <symbol id="footer" viewBox="0 0 94 39">
        <path d="M21.5401 14.3821L17.1798 27.7971H13.8667L10.9345 18.7132L7.90701 27.7971H4.61298L0.233643 14.3821H3.43246L6.44089 23.8109L9.58259 14.3821H12.4387L15.4852 23.8876L18.5888 14.3821H21.5401Z" fill="#FFD22E"/>
        <path d="M32.3261 22.6803C32.3261 22.7187 32.3071 22.987 32.2689 23.4852H24.5195C24.659 24.124 24.9891 24.6287 25.5095 24.9992C26.0299 25.3697 26.6774 25.555 27.4517 25.555C27.9849 25.555 28.4545 25.4783 28.8607 25.325C29.2795 25.1589 29.6667 24.9034 30.0222 24.5584L31.6026 26.2832C30.6378 27.3948 29.2288 27.9505 27.3755 27.9505C26.2203 27.9505 25.1984 27.7269 24.31 27.2798C23.4213 26.8198 22.7359 26.1874 22.2536 25.3825C21.7712 24.5776 21.53 23.6641 21.53 22.642C21.53 21.6327 21.7649 20.7256 22.2345 19.9207C22.7168 19.103 23.3706 18.4706 24.1958 18.0234C25.0335 17.5635 25.9664 17.3335 26.9946 17.3335C27.9974 17.3335 28.9051 17.5507 29.7175 17.9851C30.53 18.4195 31.1645 19.0455 31.6216 19.8632C32.0913 20.6681 32.3261 21.6071 32.3261 22.6803ZM27.0137 19.5949C26.341 19.5949 25.776 19.7865 25.3191 20.1698C24.8622 20.5531 24.5829 21.0769 24.4813 21.7413H29.5271C29.4255 21.0897 29.1463 20.5723 28.6894 20.189C28.2323 19.7929 27.6738 19.5949 27.0137 19.5949Z" fill="#FFD22E"/>
        <path d="M40.3592 17.3336C41.3114 17.3336 42.1745 17.5572 42.9487 18.0043C43.7358 18.4387 44.3515 19.0584 44.7958 19.8633C45.24 20.6554 45.4622 21.5817 45.4622 22.6421C45.4622 23.7025 45.24 24.6352 44.7958 25.4401C44.3515 26.2322 43.7358 26.8519 42.9487 27.299C42.1745 27.7334 41.3114 27.9506 40.3592 27.9506C38.9502 27.9506 37.8776 27.5035 37.1414 26.6091V27.7973H34.3043V13.5774H37.2747V18.5793C38.0236 17.7488 39.0518 17.3336 40.3592 17.3336ZM39.8451 25.4976C40.6068 25.4976 41.2288 25.2421 41.7111 24.731C42.2063 24.2072 42.4537 23.5109 42.4537 22.6421C42.4537 21.7733 42.2063 21.0834 41.7111 20.5724C41.2288 20.0485 40.6068 19.7866 39.8451 19.7866C39.0836 19.7866 38.4552 20.0485 37.9601 20.5724C37.4779 21.0834 37.2366 21.7733 37.2366 22.6421C37.2366 23.5109 37.4779 24.2072 37.9601 24.731C38.4552 25.2421 39.0836 25.4976 39.8451 25.4976Z" fill="#FFD22E"/>
        <path d="M59.8832 14.3821V27.7971H56.7985V22.2969H50.7436V27.7971H47.6591V14.3821H50.7436V19.6714H56.7985V14.3821H59.8832Z" fill="#FFD22E"/>
        <path d="M72.859 22.6803C72.859 22.7187 72.84 22.987 72.802 23.4852H65.0523C65.1921 24.124 65.522 24.6287 66.0426 24.9992C66.563 25.3697 67.2103 25.555 67.9846 25.555C68.5177 25.555 68.9874 25.4783 69.3936 25.325C69.8126 25.1589 70.1997 24.9034 70.5552 24.5584L72.1354 26.2832C71.1707 27.3948 69.7619 27.9505 67.9085 27.9505C66.7534 27.9505 65.7315 27.7269 64.8431 27.2798C63.9544 26.8198 63.2689 26.1874 62.7865 25.3825C62.3042 24.5776 62.0631 23.6641 62.0631 22.642C62.0631 21.6327 62.298 20.7256 62.7676 19.9207C63.2499 19.103 63.9037 18.4706 64.7287 18.0234C65.5664 17.5635 66.4995 17.3335 67.5277 17.3335C68.5305 17.3335 69.438 17.5507 70.2504 17.9851C71.0628 18.4195 71.6976 19.0455 72.1545 19.8632C72.6242 20.6681 72.859 21.6071 72.859 22.6803ZM67.5467 19.5949C66.8741 19.5949 66.3091 19.7865 65.8522 20.1698C65.3951 20.5531 65.1158 21.0769 65.0144 21.7413H70.06C69.9586 21.0897 69.6794 20.5723 69.2223 20.189C68.7654 19.7929 68.2068 19.5949 67.5467 19.5949Z" fill="#FFD22E"/>
        <path d="M77.6764 18.8475C78.0319 18.3492 78.5079 17.9723 79.1045 17.7168C79.7139 17.4613 80.4119 17.3335 81.199 17.3335V20.0932C80.869 20.0676 80.6468 20.0548 80.5326 20.0548C79.6821 20.0548 79.0157 20.2976 78.5334 20.7831C78.051 21.2558 77.8098 21.9713 77.8098 22.9295V27.7972H74.8395V17.4868H77.6764V18.8475Z" fill="#FFD22E"/>
        <path d="M87.7439 27.9505C86.6648 27.9505 85.6938 27.7269 84.8307 27.2798C83.9802 26.8198 83.3138 26.1874 82.8314 25.3825C82.3491 24.5776 82.1078 23.6641 82.1078 22.642C82.1078 21.6199 82.3491 20.7064 82.8314 19.9015C83.3138 19.0966 83.9802 18.4706 84.8307 18.0234C85.6938 17.5635 86.6648 17.3335 87.7439 17.3335C88.8228 17.3335 89.7875 17.5635 90.638 18.0234C91.4886 18.4706 92.155 19.0966 92.6374 19.9015C93.1197 20.7064 93.3608 21.6199 93.3608 22.642C93.3608 23.6641 93.1197 24.5776 92.6374 25.3825C92.155 26.1874 91.4886 26.8198 90.638 27.2798C89.7875 27.7269 88.8228 27.9505 87.7439 27.9505ZM87.7439 25.4975C88.5054 25.4975 89.1276 25.242 89.6099 24.7309C90.1049 24.2071 90.3525 23.5108 90.3525 22.642C90.3525 21.7732 90.1049 21.0833 89.6099 20.5723C89.1276 20.0484 88.5054 19.7865 87.7439 19.7865C86.9822 19.7865 86.3539 20.0484 85.8589 20.5723C85.3639 21.0833 85.1163 21.7732 85.1163 22.642C85.1163 23.5108 85.3639 24.2071 85.8589 24.7309C86.3539 25.242 86.9822 25.4975 87.7439 25.4975Z" fill="#FFD22E"/>
        <path d="M60.3972 38.5633C59.8241 38.5633 59.2692 38.4757 58.7324 38.3004C58.2031 38.1181 57.7858 37.8844 57.4812 37.5996L57.8838 36.7454C58.1739 37.0083 58.5439 37.2236 58.9935 37.3916C59.4506 37.5523 59.9184 37.6326 60.3972 37.6326C61.0282 37.6326 61.4998 37.5266 61.8116 37.3149C62.1235 37.0959 62.2796 36.8075 62.2796 36.4498C62.2796 36.1871 62.1925 35.9752 62.0184 35.8147C61.8515 35.6468 61.6412 35.5191 61.3873 35.4314C61.1406 35.3438 60.789 35.2452 60.3319 35.1358C59.7589 34.9969 59.2947 34.8583 58.9392 34.7195C58.591 34.5809 58.29 34.3692 58.0361 34.0844C57.7894 33.7924 57.6663 33.4019 57.6663 32.9125C57.6663 32.5037 57.7713 32.135 57.9818 31.8066C58.1994 31.478 58.5258 31.2152 58.961 31.0181C59.3961 30.821 59.9365 30.7224 60.5821 30.7224C61.0318 30.7224 61.4744 30.7808 61.9096 30.8976C62.3448 31.0145 62.7184 31.1824 63.0302 31.4014L62.6711 32.2775C62.352 32.0731 62.0112 31.9197 61.6484 31.8175C61.2857 31.708 60.9304 31.6533 60.5821 31.6533C59.9657 31.6533 59.5013 31.7664 59.1895 31.9927C58.8849 32.219 58.7324 32.511 58.7324 32.8688C58.7324 33.1317 58.8195 33.347 58.9935 33.515C59.1678 33.6755 59.3816 33.8034 59.6355 33.8983C59.8967 33.9859 60.2486 34.0808 60.691 34.183C61.264 34.3216 61.7245 34.4605 62.0728 34.5991C62.421 34.7377 62.7184 34.9496 62.965 35.2343C63.2187 35.5191 63.3457 35.9023 63.3457 36.3842C63.3457 36.7857 63.237 37.1544 63.0194 37.4901C62.8017 37.8186 62.4717 38.0815 62.0293 38.2786C61.5867 38.4684 61.0427 38.5633 60.3972 38.5633Z" fill="black"/>
        <path d="M67.2958 38.5418C66.7081 38.5418 66.1824 38.4141 65.718 38.1585C65.2611 37.9029 64.902 37.5526 64.6409 37.1072C64.3797 36.6545 64.2491 36.1435 64.2491 35.574C64.2491 35.0045 64.3797 34.4972 64.6409 34.0518C64.902 33.5993 65.2611 33.2488 65.718 33.0005C66.1824 32.7451 66.7081 32.6172 67.2958 32.6172C67.818 32.6172 68.2822 32.7232 68.6884 32.9349C69.1018 33.1466 69.4209 33.4532 69.6459 33.8547L68.8516 34.3695C68.6703 34.0921 68.4454 33.884 68.177 33.7452C67.9086 33.6066 67.6112 33.5372 67.2849 33.5372C66.9077 33.5372 66.5667 33.6211 66.262 33.7891C65.9647 33.9569 65.7289 34.1979 65.5549 34.5118C65.3881 34.8184 65.3046 35.1725 65.3046 35.574C65.3046 35.9828 65.3881 36.3442 65.5549 36.6581C65.7289 36.9649 65.9647 37.2021 66.262 37.3701C66.5667 37.538 66.9077 37.6218 67.2849 37.6218C67.6112 37.6218 67.9086 37.5526 68.177 37.4138C68.4454 37.2751 68.6703 37.0671 68.8516 36.7897L69.6459 37.2934C69.4209 37.6949 69.1018 38.0051 68.6884 38.2243C68.2822 38.4359 67.818 38.5418 67.2958 38.5418Z" fill="black"/>
        <path d="M74.0036 32.6164C74.7362 32.6164 75.3166 32.8319 75.7445 33.2626C76.1797 33.6861 76.3974 34.3102 76.3974 35.1353V38.4752H75.3528V35.2557C75.3528 34.6935 75.2186 34.2701 74.9502 33.9854C74.6819 33.7007 74.2974 33.5582 73.7968 33.5582C73.2311 33.5582 72.785 33.7262 72.4587 34.0619C72.1322 34.3906 71.969 34.8651 71.969 35.4856V38.4752H70.9244V30.3496H71.969V33.4926C72.1867 33.2152 72.4696 32.9997 72.8176 32.8465C73.1731 32.6931 73.5685 32.6164 74.0036 32.6164Z" fill="black"/>
        <path d="M80.8323 38.5418C80.2593 38.5418 79.7443 38.4141 79.2874 38.1585C78.8303 37.9029 78.4713 37.5526 78.2102 37.1072C77.9563 36.6545 77.8293 36.1435 77.8293 35.574C77.8293 35.0045 77.9563 34.4972 78.2102 34.0518C78.4713 33.5993 78.8303 33.2488 79.2874 33.0005C79.7443 32.7451 80.2593 32.6172 80.8323 32.6172C81.4053 32.6172 81.9167 32.7451 82.3664 33.0005C82.8235 33.2488 83.1788 33.5993 83.4327 34.0518C83.6938 34.4972 83.8244 35.0045 83.8244 35.574C83.8244 36.1435 83.6938 36.6545 83.4327 37.1072C83.1788 37.5526 82.8235 37.9029 82.3664 38.1585C81.9167 38.4141 81.4053 38.5418 80.8323 38.5418ZM80.8323 37.6218C81.2023 37.6218 81.5322 37.538 81.8224 37.3701C82.1199 37.1948 82.3519 36.9538 82.5187 36.6472C82.6857 36.3333 82.769 35.9755 82.769 35.574C82.769 35.1725 82.6857 34.8184 82.5187 34.5118C82.3519 34.1979 82.1199 33.9569 81.8224 33.7891C81.5322 33.6211 81.2023 33.5372 80.8323 33.5372C80.4623 33.5372 80.1287 33.6211 79.8314 33.7891C79.5413 33.9569 79.3091 34.1979 79.1351 34.5118C78.9681 34.8184 78.8848 35.1725 78.8848 35.574C78.8848 35.9755 78.9681 36.3333 79.1351 36.6472C79.3091 36.9538 79.5413 37.1948 79.8314 37.3701C80.1287 37.538 80.4623 37.6218 80.8323 37.6218Z" fill="black"/>
        <path d="M87.7364 38.5418C87.1632 38.5418 86.6484 38.4141 86.1913 38.1585C85.7344 37.9029 85.3753 37.5526 85.1141 37.1072C84.8602 36.6545 84.7333 36.1435 84.7333 35.574C84.7333 35.0045 84.8602 34.4972 85.1141 34.0518C85.3753 33.5993 85.7344 33.2488 86.1913 33.0005C86.6484 32.7451 87.1632 32.6172 87.7364 32.6172C88.3094 32.6172 88.8208 32.7451 89.2705 33.0005C89.7274 33.2488 90.0829 33.5993 90.3368 34.0518C90.598 34.4972 90.7285 35.0045 90.7285 35.574C90.7285 36.1435 90.598 36.6545 90.3368 37.1072C90.0829 37.5526 89.7274 37.9029 89.2705 38.1585C88.8208 38.4141 88.3094 38.5418 87.7364 38.5418ZM87.7364 37.6218C88.1062 37.6218 88.4364 37.538 88.7265 37.3701C89.0238 37.1948 89.256 36.9538 89.4228 36.6472C89.5896 36.3333 89.6731 35.9755 89.6731 35.574C89.6731 35.1725 89.5896 34.8184 89.4228 34.5118C89.256 34.1979 89.0238 33.9569 88.7265 33.7891C88.4364 33.6211 88.1062 33.5372 87.7364 33.5372C87.3664 33.5372 87.0327 33.6211 86.7353 33.7891C86.4452 33.9569 86.213 34.1979 86.039 34.5118C85.8722 34.8184 85.7887 35.1725 85.7887 35.574C85.7887 35.9755 85.8722 36.3333 86.039 36.6472C86.213 36.9538 86.4452 37.1948 86.7353 37.3701C87.0327 37.538 87.3664 37.6218 87.7364 37.6218Z" fill="black"/>
        <path d="M92.1755 30.3496H93.2201V38.4752H92.1755V30.3496Z" fill="black"/>
        <path d="M8.09763 0.921696H5.48254V6.96314H6.88071V5.29743H8.09763C9.71156 5.29743 10.7213 4.46026 10.7213 3.11388C10.7213 1.75887 9.71156 0.921696 8.09763 0.921696ZM8.01995 4.15819H6.88071V2.06094H8.01995C8.87439 2.06094 9.30592 2.44932 9.30592 3.11388C9.30592 3.76981 8.87439 4.15819 8.01995 4.15819Z" fill="black"/>
        <path d="M15.9663 6.96314H17.4335L14.7321 0.921696H13.3512L10.6584 6.96314H12.0911L12.6262 5.66855H15.4312L15.9663 6.96314ZM13.075 4.60698L14.033 2.29397L14.991 4.60698H13.075Z" fill="black"/>
        <path d="M21.6696 3.81296C22.2047 3.57993 22.5413 3.11388 22.5413 2.527C22.5413 1.4309 21.3331 0.792236 19.9349 0.792236C19.2444 0.792236 18.5195 0.947588 17.8635 1.28418L18.2864 2.37164C18.8043 2.0782 19.3998 1.94011 19.909 1.94011C20.5908 1.94011 21.1259 2.19903 21.1259 2.69098C21.1259 3.08799 20.798 3.33828 20.2283 3.33828H18.8561V4.39121H20.3319C20.9619 4.39121 21.3762 4.61561 21.3762 5.07303C21.3762 5.63403 20.7289 5.92747 19.9349 5.92747C19.348 5.92747 18.6748 5.77212 18.1225 5.43552L17.6909 6.43668C18.4418 6.86821 19.2962 7.06671 20.0989 7.06671C21.5488 7.06671 22.7916 6.41078 22.7916 5.27154C22.7916 4.58972 22.3687 4.05462 21.6696 3.81296Z" fill="black"/>
        <path d="M26.5136 0.921696H23.8985V6.96314H25.2967V5.29743H26.5136C28.1275 5.29743 29.1373 4.46026 29.1373 3.11388C29.1373 1.75887 28.1275 0.921696 26.5136 0.921696ZM26.4359 4.15819H25.2967V2.06094H26.4359C27.2904 2.06094 27.7219 2.44932 27.7219 3.11388C27.7219 3.76981 27.2904 4.15819 26.4359 4.15819Z" fill="black"/>
        <path d="M34.3822 6.96314H35.8495L33.1481 0.921696H31.7672L29.0744 6.96314H30.5071L31.0422 5.66855H33.8471L34.3822 6.96314ZM31.491 4.60698L32.449 2.29397L33.407 4.60698H31.491Z" fill="black"/>
        <path d="M36.6506 6.96314H39.516C41.0695 6.96314 41.9585 6.26406 41.9585 5.05577C41.9585 3.89927 41.1731 3.27786 39.7145 3.27786H38.0402V2.03505H41.5269V0.921696H36.6506V6.96314ZM38.0402 5.92747V4.30491H39.4383C40.1719 4.30491 40.543 4.56383 40.543 5.09893C40.543 5.64266 40.1547 5.92747 39.4383 5.92747H38.0402Z" fill="black"/>
        <path d="M45.9051 7.06671C47.8038 7.06671 49.2106 5.74622 49.2106 3.94242C49.2106 2.13862 47.8038 0.818128 45.9051 0.818128C43.9977 0.818128 42.5996 2.14725 42.5996 3.94242C42.5996 5.73759 43.9977 7.06671 45.9051 7.06671ZM45.9051 5.87568C44.8263 5.87568 44.015 5.0903 44.015 3.94242C44.015 2.79455 44.8263 2.00916 45.9051 2.00916C46.9839 2.00916 47.7952 2.79455 47.7952 3.94242C47.7952 5.0903 46.9839 5.87568 45.9051 5.87568Z" fill="black"/>
        <path d="M54.8208 0.921696H49.582V2.06094H51.5066V6.96314H52.8876V2.06094H54.8208V0.921696Z" fill="black"/>
        <path d="M60.0213 6.96314H61.4885L58.7871 0.921696H57.4062L54.7135 6.96314H56.1462L56.6813 5.66855H59.4862L60.0213 6.96314ZM57.1301 4.60698L58.0881 2.29397L59.0461 4.60698H57.1301Z" fill="black"/>
        <path d="M66.4324 0.921696V3.30375H63.6879V0.921696H62.2897V6.96314H63.6879V4.48615H66.4324V6.96314H67.8306V0.921696H66.4324Z" fill="black"/>
        <path d="M72.2269 7.06671C74.1256 7.06671 75.5324 5.74622 75.5324 3.94242C75.5324 2.13862 74.1256 0.818128 72.2269 0.818128C70.3195 0.818128 68.9213 2.14725 68.9213 3.94242C68.9213 5.73759 70.3195 7.06671 72.2269 7.06671ZM72.2269 5.87568C71.148 5.87568 70.3368 5.0903 70.3368 3.94242C70.3368 2.79455 71.148 2.00916 72.2269 2.00916C73.3057 2.00916 74.117 2.79455 74.117 3.94242C74.117 5.0903 73.3057 5.87568 72.2269 5.87568Z" fill="black"/>
        <path d="M83.2396 3.81296C83.7747 3.55404 84.094 3.09662 84.094 2.48384C84.094 1.48269 83.2655 0.921696 81.8673 0.921696H79.0537V6.96314H82.0313C83.5589 6.96314 84.3788 6.31585 84.3788 5.26291C84.3788 4.5293 83.9732 4.02873 83.2396 3.81296ZM80.4432 1.95737H81.7465C82.3506 1.95737 82.6699 2.21629 82.6699 2.69098C82.6699 3.17429 82.3506 3.42458 81.7465 3.42458H80.4432V1.95737ZM81.9795 5.92747H80.4432V4.39984H81.9795C82.6268 4.39984 82.9634 4.6415 82.9634 5.15071C82.9634 5.67718 82.6268 5.92747 81.9795 5.92747Z" fill="black"/>
    </symbol>
</svg>
